<svg width="16" height="17" viewBox="0 0 16 17" fill="none" xmlns="http://www.w3.org/2000/svg">
<g id="akar-icons:linkedin-box-fill">
<path id="Vector" fill-rule="evenodd" clip-rule="evenodd" d="M0.666504 2.24291C0.666504 1.91793 0.795601 1.60627 1.0254 1.37647C1.25519 1.14668 1.56686 1.01758 1.89184 1.01758H14.1065C14.2676 1.01732 14.4271 1.04882 14.5759 1.11029C14.7248 1.17176 14.8601 1.26199 14.974 1.3758C15.0879 1.48962 15.1783 1.6248 15.24 1.77359C15.3016 1.92238 15.3333 2.08186 15.3332 2.24291V14.4576C15.3333 14.6187 15.3018 14.7782 15.2402 14.9271C15.1787 15.0759 15.0884 15.2112 14.9745 15.3251C14.8606 15.4391 14.7254 15.5294 14.5766 15.591C14.4278 15.6527 14.2683 15.6843 14.1072 15.6842H1.89184C1.73087 15.6842 1.57148 15.6525 1.42277 15.5909C1.27406 15.5293 1.13895 15.439 1.02516 15.3251C0.911369 15.2113 0.821125 15.0761 0.759586 14.9274C0.698046 14.7786 0.666417 14.6192 0.666504 14.4582V2.24291ZM6.47184 6.60958H8.45784V7.60691C8.7445 7.03358 9.47784 6.51758 10.5798 6.51758C12.6925 6.51758 13.1932 7.65958 13.1932 9.75491V13.6362H11.0552V10.2322C11.0552 9.03891 10.7685 8.36558 10.0405 8.36558C9.0305 8.36558 8.6105 9.09158 8.6105 10.2322V13.6362H6.47184V6.60958ZM2.80517 13.5449H4.94384V6.51758H2.80517V13.5442V13.5449ZM5.24984 4.22558C5.25387 4.40869 5.22129 4.59077 5.154 4.76112C5.08671 4.93147 4.98607 5.08667 4.85799 5.2176C4.72991 5.34853 4.57697 5.45256 4.40814 5.52358C4.23931 5.59461 4.058 5.63119 3.87484 5.63119C3.69168 5.63119 3.51036 5.59461 3.34153 5.52358C3.17271 5.45256 3.01976 5.34853 2.89168 5.2176C2.7636 5.08667 2.66297 4.93147 2.59568 4.76112C2.52839 4.59077 2.49581 4.40869 2.49984 4.22558C2.50775 3.86615 2.65609 3.52411 2.91309 3.2727C3.17009 3.0213 3.51532 2.88052 3.87484 2.88052C4.23436 2.88052 4.57958 3.0213 4.83658 3.2727C5.09358 3.52411 5.24192 3.86615 5.24984 4.22558Z" fill="#FEFEFE"/>
</g>
</svg>
