<svg width="16" height="17" viewBox="0 0 16 17" fill="none" xmlns="http://www.w3.org/2000/svg">
<g id="ant-design:instagram-filled">
<path id="Vector" d="M7.99959 6.26795C6.85271 6.26795 5.91677 7.20388 5.91677 8.35076C5.91677 9.49763 6.85271 10.4336 7.99959 10.4336C9.14646 10.4336 10.0824 9.49763 10.0824 8.35076C10.0824 7.20388 9.14646 6.26795 7.99959 6.26795ZM14.2465 8.35076C14.2465 7.48826 14.2543 6.63357 14.2058 5.77263C14.1574 4.77263 13.9293 3.88513 13.198 3.15388C12.4652 2.42107 11.5793 2.19451 10.5793 2.14607C9.71677 2.09763 8.86209 2.10545 8.00115 2.10545C7.13865 2.10545 6.28396 2.09763 5.42302 2.14607C4.42302 2.19451 3.53552 2.42263 2.80427 3.15388C2.07146 3.8867 1.8449 4.77263 1.79646 5.77263C1.74802 6.63513 1.75584 7.48982 1.75584 8.35076C1.75584 9.2117 1.74802 10.0679 1.79646 10.9289C1.8449 11.9289 2.07302 12.8164 2.80427 13.5476C3.53709 14.2804 4.42302 14.507 5.42302 14.5554C6.28552 14.6039 7.14021 14.5961 8.00115 14.5961C8.86365 14.5961 9.71834 14.6039 10.5793 14.5554C11.5793 14.507 12.4668 14.2789 13.198 13.5476C13.9308 12.8148 14.1574 11.9289 14.2058 10.9289C14.2558 10.0679 14.2465 9.21326 14.2465 8.35076ZM7.99959 11.5554C6.22615 11.5554 4.7949 10.1242 4.7949 8.35076C4.7949 6.57732 6.22615 5.14607 7.99959 5.14607C9.77302 5.14607 11.2043 6.57732 11.2043 8.35076C11.2043 10.1242 9.77302 11.5554 7.99959 11.5554ZM11.3355 5.76326C10.9215 5.76326 10.5871 5.42888 10.5871 5.01482C10.5871 4.60076 10.9215 4.26638 11.3355 4.26638C11.7496 4.26638 12.084 4.60076 12.084 5.01482C12.0841 5.11314 12.0648 5.21052 12.0272 5.30138C11.9897 5.39224 11.9345 5.4748 11.865 5.54432C11.7955 5.61384 11.7129 5.66897 11.6221 5.70654C11.5312 5.74411 11.4338 5.76338 11.3355 5.76326Z" fill="#FEFEFE"/>
</g>
</svg>
