<svg width="16" height="17" viewBox="0 0 16 17" fill="none" xmlns="http://www.w3.org/2000/svg">
<g id="ant-design:twitter-outlined">
<path id="Vector" d="M14.4986 4.32403C14.0205 4.53028 13.5002 4.67872 12.9643 4.73653C13.5207 4.40596 13.9374 3.88372 14.1361 3.26778C13.614 3.57839 13.042 3.79619 12.4455 3.91153C12.1962 3.64501 11.8947 3.43269 11.5597 3.28779C11.2248 3.1429 10.8636 3.06854 10.4986 3.06934C9.02207 3.06934 7.83457 4.26622 7.83457 5.73497C7.83457 5.94122 7.85957 6.14747 7.90019 6.34591C5.68926 6.23028 3.71738 5.17403 2.40645 3.55684C2.16758 3.96484 2.0424 4.42938 2.04395 4.90215C2.04395 5.82715 2.51426 6.64278 3.23144 7.12247C2.8088 7.10582 2.39604 6.98965 2.02676 6.78341V6.81622C2.02676 8.11153 2.94238 9.18497 4.1627 9.43184C3.93357 9.49136 3.69786 9.52181 3.46113 9.52247C3.2877 9.52247 3.12363 9.50528 2.95801 9.48184C3.29551 10.5381 4.27832 11.3053 5.44863 11.3303C4.53301 12.0475 3.38613 12.4693 2.14082 12.4693C1.91738 12.4693 1.71113 12.4615 1.49707 12.4365C2.67832 13.1943 4.07988 13.6318 5.58926 13.6318C10.4893 13.6318 13.1705 9.57247 13.1705 6.04903C13.1705 5.93341 13.1705 5.81778 13.1627 5.70215C13.6814 5.32247 14.1361 4.85215 14.4986 4.32403Z" fill="#FEFEFE"/>
</g>
</svg>
