<svg width="16" height="17" viewBox="0 0 16 17" fill="none" xmlns="http://www.w3.org/2000/svg">
<g id="vuesax/linear/briefcase">
<g id="vuesax/linear/briefcase_2">
<g id="briefcase">
<path id="Vector" d="M5.33338 15.4402H10.6667C13.3467 15.4402 13.8267 14.3669 13.9667 13.0602L14.4667 7.72689C14.6467 6.10023 14.18 4.77356 11.3334 4.77356H4.66671C1.82005 4.77356 1.35338 6.10023 1.53338 7.72689L2.03338 13.0602C2.17338 14.3669 2.65338 15.4402 5.33338 15.4402Z" stroke="#747474" stroke-width="1.5" stroke-miterlimit="10" stroke-linecap="round" stroke-linejoin="round"/>
<path id="Vector_2" d="M5.3335 4.77354V4.24021C5.3335 3.06021 5.3335 2.10687 7.46683 2.10687H8.5335C10.6668 2.10687 10.6668 3.06021 10.6668 4.24021V4.77354" stroke="#747474" stroke-width="1.5" stroke-miterlimit="10" stroke-linecap="round" stroke-linejoin="round"/>
<path id="Vector_3" d="M9.33317 9.44023V10.1069C9.33317 10.1136 9.33317 10.1136 9.33317 10.1202C9.33317 10.8469 9.3265 11.4402 7.99984 11.4402C6.67984 11.4402 6.6665 10.8536 6.6665 10.1269V9.44023C6.6665 8.77356 6.6665 8.77356 7.33317 8.77356H8.6665C9.33317 8.77356 9.33317 8.77356 9.33317 9.44023Z" stroke="#747474" stroke-width="1.5" stroke-miterlimit="10" stroke-linecap="round" stroke-linejoin="round"/>
<path id="Vector_4" d="M14.4335 8.10687C12.8935 9.22687 11.1335 9.89354 9.3335 10.1202" stroke="#747474" stroke-width="1.5" stroke-miterlimit="10" stroke-linecap="round" stroke-linejoin="round"/>
<path id="Vector_5" d="M1.74658 8.28687C3.24658 9.31353 4.93992 9.93353 6.66658 10.1269" stroke="#747474" stroke-width="1.5" stroke-miterlimit="10" stroke-linecap="round" stroke-linejoin="round"/>
</g>
</g>
</g>
</svg>
