<svg width="10" height="11" viewBox="0 0 10 11" fill="none" xmlns="http://www.w3.org/2000/svg">
<g id="vuesax/linear/briefcase">
<g id="vuesax/linear/briefcase_2">
<g id="briefcase">
<path id="Vector" d="M3.33367 9.36662H6.667C8.342 9.36662 8.642 8.69578 8.7295 7.87912L9.042 4.54578C9.1545 3.52912 8.86283 2.69995 7.08367 2.69995H2.917C1.13783 2.69995 0.846168 3.52912 0.958668 4.54578L1.27117 7.87912C1.35867 8.69578 1.65867 9.36662 3.33367 9.36662Z" stroke="#747474" stroke-width="0.9375" stroke-miterlimit="10" stroke-linecap="round" stroke-linejoin="round"/>
<path id="Vector_2" d="M3.33398 2.69993V2.3666C3.33398 1.6291 3.33398 1.03326 4.66732 1.03326H5.33398C6.66732 1.03326 6.66732 1.6291 6.66732 2.3666V2.69993" stroke="#747474" stroke-width="0.9375" stroke-miterlimit="10" stroke-linecap="round" stroke-linejoin="round"/>
<path id="Vector_3" d="M5.83268 5.61662V6.03328C5.83268 6.03745 5.83268 6.03745 5.83268 6.04162C5.83268 6.49578 5.82852 6.86662 4.99935 6.86662C4.17435 6.86662 4.16602 6.49995 4.16602 6.04578V5.61662C4.16602 5.19995 4.16602 5.19995 4.58268 5.19995H5.41602C5.83268 5.19995 5.83268 5.19995 5.83268 5.61662Z" stroke="#747474" stroke-width="0.9375" stroke-miterlimit="10" stroke-linecap="round" stroke-linejoin="round"/>
<path id="Vector_4" d="M9.02148 4.78326C8.05898 5.48326 6.95898 5.89993 5.83398 6.0416" stroke="#747474" stroke-width="0.9375" stroke-miterlimit="10" stroke-linecap="round" stroke-linejoin="round"/>
<path id="Vector_5" d="M1.09131 4.89575C2.02881 5.53742 3.08714 5.92492 4.16631 6.04575" stroke="#747474" stroke-width="0.9375" stroke-miterlimit="10" stroke-linecap="round" stroke-linejoin="round"/>
</g>
</g>
</g>
</svg>
