<svg width="40" height="40" viewBox="0 0 40 40" fill="none" xmlns="http://www.w3.org/2000/svg">
<g id="vuesax/bold/call">
<g id="vuesax/bold/call_2">
<g id="call">
<path id="Vector" d="M18.4163 24.9166L15.333 28C14.683 28.65 13.6497 28.65 12.983 28.0166C12.7997 27.8333 12.6163 27.6666 12.433 27.4833C10.7163 25.75 9.16634 23.9333 7.78301 22.0333C6.41634 20.1333 5.31634 18.2333 4.51634 16.35C3.73301 14.45 3.33301 12.6333 3.33301 10.9C3.33301 9.76665 3.53301 8.68331 3.93301 7.68331C4.33301 6.66665 4.96634 5.73331 5.84967 4.89998C6.91634 3.84998 8.08301 3.33331 9.31634 3.33331C9.78301 3.33331 10.2497 3.43331 10.6663 3.63331C11.0997 3.83331 11.483 4.13331 11.783 4.56665L15.6497 10.0166C15.9497 10.4333 16.1663 10.8166 16.3163 11.1833C16.4663 11.5333 16.5497 11.8833 16.5497 12.2C16.5497 12.6 16.433 13 16.1997 13.3833C15.983 13.7666 15.6663 14.1666 15.2663 14.5666L13.9997 15.8833C13.8163 16.0666 13.733 16.2833 13.733 16.55C13.733 16.6833 13.7497 16.8 13.783 16.9333C13.833 17.0666 13.883 17.1666 13.9163 17.2666C14.2163 17.8166 14.733 18.5333 15.4663 19.4C16.2163 20.2666 17.0163 21.15 17.883 22.0333C18.0497 22.2 18.233 22.3666 18.3997 22.5333C19.0663 23.1833 19.083 24.25 18.4163 24.9166Z" fill="#181818"/>
<path id="Vector_2" d="M36.6167 30.55C36.6167 31.0167 36.5333 31.5 36.3667 31.9667C36.3167 32.1 36.2667 32.2334 36.2 32.3667C35.9167 32.9667 35.55 33.5334 35.0667 34.0667C34.25 34.9667 33.35 35.6167 32.3333 36.0334C32.3167 36.0334 32.3 36.05 32.2833 36.05C31.3 36.45 30.2333 36.6667 29.0833 36.6667C27.3833 36.6667 25.5667 36.2667 23.65 35.45C21.7333 34.6334 19.8167 33.5334 17.9167 32.15C17.2667 31.6667 16.6167 31.1834 16 30.6667L21.45 25.2167C21.9167 25.5667 22.3333 25.8334 22.6833 26.0167C22.7667 26.05 22.8667 26.1 22.9833 26.15C23.1167 26.2 23.25 26.2167 23.4 26.2167C23.6833 26.2167 23.9 26.1167 24.0833 25.9334L25.35 24.6834C25.7667 24.2667 26.1667 23.95 26.55 23.75C26.9333 23.5167 27.3167 23.4 27.7333 23.4C28.05 23.4 28.3833 23.4667 28.75 23.6167C29.1167 23.7667 29.5 23.9834 29.9167 24.2667L35.4333 28.1834C35.8667 28.4834 36.1667 28.8334 36.35 29.25C36.5167 29.6667 36.6167 30.0834 36.6167 30.55Z" fill="#181818"/>
</g>
</g>
</g>
</svg>
