<svg width="10" height="11" viewBox="0 0 10 11" fill="none" xmlns="http://www.w3.org/2000/svg">
<g id="vuesax/linear/profile-2user">
<g id="vuesax/linear/profile-2user_2">
<g id="profile-2user">
<path id="Vector" d="M3.81608 4.7291C3.77441 4.72493 3.72441 4.72493 3.67858 4.7291C2.68691 4.69576 1.89941 3.88326 1.89941 2.88326C1.89941 1.86243 2.72441 1.03326 3.74941 1.03326C4.77025 1.03326 5.59941 1.86243 5.59941 2.88326C5.59525 3.88326 4.80775 4.69576 3.81608 4.7291Z" stroke="#747474" stroke-width="0.9375" stroke-linecap="round" stroke-linejoin="round"/>
<path id="Vector_2" d="M6.83737 1.86664C7.6457 1.86664 8.2957 2.5208 8.2957 3.32497C8.2957 4.11247 7.6707 4.75414 6.89154 4.78331C6.8582 4.77914 6.8207 4.77914 6.7832 4.78331" stroke="#747474" stroke-width="0.9375" stroke-linecap="round" stroke-linejoin="round"/>
<path id="Vector_3" d="M1.73281 6.26664C0.724479 6.94164 0.724479 8.04164 1.73281 8.71247C2.87865 9.47914 4.75781 9.47914 5.90365 8.71247C6.91198 8.03747 6.91198 6.93747 5.90365 6.26664C4.76198 5.50414 2.88281 5.50414 1.73281 6.26664Z" stroke="#747474" stroke-width="0.9375" stroke-linecap="round" stroke-linejoin="round"/>
<path id="Vector_4" d="M7.6416 8.53326C7.9416 8.47076 8.22493 8.34993 8.45827 8.17076C9.10827 7.68326 9.10827 6.8791 8.45827 6.3916C8.2291 6.2166 7.94994 6.09993 7.6541 6.03326" stroke="#747474" stroke-width="0.9375" stroke-linecap="round" stroke-linejoin="round"/>
</g>
</g>
</g>
</svg>
