<svg width="17" height="17" viewBox="0 0 17 17" fill="none" xmlns="http://www.w3.org/2000/svg">
<g id="vuesax/linear/profile-2user">
<g id="vuesax/linear/profile-2user_2">
<g id="profile-2user">
<path id="Vector" d="M6.33327 8.02021C6.2666 8.01354 6.1866 8.01354 6.11327 8.02021C4.5266 7.96687 3.2666 6.66687 3.2666 5.06687C3.2666 3.43354 4.5866 2.10687 6.2266 2.10687C7.85993 2.10687 9.1866 3.43354 9.1866 5.06687C9.17993 6.66687 7.91993 7.96687 6.33327 8.02021Z" stroke="#747474" stroke-width="1.5" stroke-linecap="round" stroke-linejoin="round"/>
<path id="Vector_2" d="M11.1667 3.44025C12.4601 3.44025 13.5001 4.48691 13.5001 5.77358C13.5001 7.03358 12.5001 8.06025 11.2534 8.10691C11.2001 8.10025 11.1401 8.10025 11.0801 8.10691" stroke="#747474" stroke-width="1.5" stroke-linecap="round" stroke-linejoin="round"/>
<path id="Vector_3" d="M3.00004 10.4802C1.38671 11.5602 1.38671 13.3202 3.00004 14.3936C4.83337 15.6202 7.84004 15.6202 9.67337 14.3936C11.2867 13.3136 11.2867 11.5536 9.67337 10.4802C7.84671 9.26025 4.84004 9.26025 3.00004 10.4802Z" stroke="#747474" stroke-width="1.5" stroke-linecap="round" stroke-linejoin="round"/>
<path id="Vector_4" d="M12.4531 14.1069C12.9331 14.0069 13.3865 13.8135 13.7598 13.5269C14.7998 12.7469 14.7998 11.4602 13.7598 10.6802C13.3931 10.4002 12.9465 10.2135 12.4731 10.1069" stroke="#747474" stroke-width="1.5" stroke-linecap="round" stroke-linejoin="round"/>
</g>
</g>
</g>
</svg>
