<svg width="20" height="21" viewBox="0 0 20 21" fill="none" xmlns="http://www.w3.org/2000/svg">
<g id="vuesax/bold/heart">
<g id="vuesax/bold/heart_2">
<g id="heart">
<path id="Vector" d="M9.59899 5.49029L9.99935 6.02542L10.3997 5.49029C11.1514 4.48549 12.3559 3.83243 13.6994 3.83243C15.9792 3.83243 17.8327 5.68956 17.8327 7.99076C17.8327 8.92805 17.6832 9.79284 17.4236 10.5952L17.4226 10.5984C16.8001 12.5685 15.5233 14.1591 14.1412 15.347C12.7569 16.5367 11.2956 17.2974 10.355 17.6174L10.3549 17.6174L10.3496 17.6193C10.2781 17.6445 10.1511 17.6658 9.99935 17.6658C9.8476 17.6658 9.7206 17.6445 9.64909 17.6193L9.6491 17.6192L9.64374 17.6174C8.70311 17.2974 7.24185 16.5367 5.85754 15.347C4.47542 14.1591 3.19864 12.5685 2.57611 10.5984L2.57612 10.5984L2.57507 10.5952C2.31549 9.79284 2.16602 8.92805 2.16602 7.99076C2.16602 5.68956 4.01949 3.83243 6.29935 3.83243C7.64278 3.83243 8.84726 4.48549 9.59899 5.49029Z" fill="#D92D20" stroke="#D92D20"/>
</g>
</g>
</g>
</svg>
