<svg width="40" height="40" viewBox="0 0 40 40" fill="none" xmlns="http://www.w3.org/2000/svg">
<path d="M21.8261 0H24.4101L26.0983 0.0344531L27.4764 0.0689061L28.1999 0.103359C30.336 0.206718 31.783 0.551249 33.0233 1.03359C34.3326 1.55039 35.4351 2.23945 36.572 3.34195C37.6745 4.44444 38.3636 5.5814 38.8804 6.89061C39.3282 8.02756 39.6383 9.30233 39.7761 11.0594L39.8795 12.9543L39.9139 14.7459L39.9484 18.1568V24.565L39.9139 26.5633L39.845 28.2171C39.7417 30.3531 39.3972 31.8002 38.9148 33.0749C38.398 34.3842 37.709 35.4867 36.6065 36.6236C35.504 37.7261 34.4015 38.4152 33.0578 38.932C31.9208 39.3798 30.6461 39.6899 28.889 39.8277L26.7529 39.9311L24.858 39.9655L21.7916 40H15.3834L13.3851 39.9655L11.7313 39.8966C9.59526 39.7933 8.14823 39.4488 6.90792 38.9664C5.5987 38.4496 4.4962 37.7606 3.35925 36.6581C2.25675 35.5556 1.56769 34.4186 1.0509 33.1094C0.603007 31.9724 0.292929 30.6977 0.155117 28.9406L0.0862109 27.528L0.0517578 26.1499L0.0517578 24.3583V21.1886V15.5039L0.0862109 13.8157L0.120664 12.4376L0.155117 11.714C0.258476 9.6124 0.603007 8.16537 1.08535 6.89061C1.60215 5.5814 2.29121 4.4789 3.3937 3.34195C4.4962 2.23945 5.63315 1.55039 6.94237 1.03359C8.07932 0.585702 9.35408 0.275624 11.1112 0.137812L12.5238 0.0689061L13.9019 0.0344531L15.5556 0H18.1396C18.1741 0 21.8261 0 21.8261 0ZM24.3412 3.61757H15.6245L14.1086 3.65202L11.9036 3.72093C11.3524 3.75538 10.8011 3.78984 10.2499 3.85874L9.93979 3.8932C9.73307 3.92765 9.4919 3.9621 9.28518 4.03101L9.04401 4.09991C8.9751 4.13437 8.90619 4.13437 8.83729 4.16882L8.3894 4.30663L8.18268 4.37554C7.25245 4.75452 6.59784 5.16796 5.87433 5.85702C5.18526 6.54608 4.73737 7.23514 4.39284 8.16538L4.28948 8.61326L4.22058 8.81998C4.04831 9.40569 3.87605 10.2326 3.77269 11.3695L3.73824 12.2308L3.66933 14.0224L3.63488 17.0887V24.186L3.66933 26.391L3.73824 28.0103C3.77269 28.596 3.80714 29.1817 3.9105 29.7674L3.94495 30.0431C3.94495 30.0775 3.94495 30.1464 3.97941 30.1809L4.04831 30.4221L4.11722 30.6632C4.11722 30.6977 4.15167 30.7321 4.15167 30.7666L4.22058 30.9733L4.28948 31.18L4.32394 31.2834L4.46175 31.6968C4.80628 32.627 5.25417 33.2817 5.94323 34.0052C6.63229 34.6942 7.32135 35.1421 8.25159 35.4866L8.66502 35.6245L8.83729 35.6934L8.94065 35.7278L9.14737 35.7967C9.18182 35.7967 9.21627 35.8312 9.25073 35.8312L9.4919 35.9001L9.73307 35.969L10.0087 36.0034C10.5255 36.1068 11.1456 36.1757 11.9036 36.2102L14.3498 36.3135L17.5884 36.348H24.6168L26.4083 36.3135L28.0276 36.2446C28.7856 36.2102 29.4058 36.1413 29.9226 36.0379L30.1982 36.0034L30.4394 35.9345L30.715 35.8312L30.8183 35.7967L31.0251 35.7278L31.2318 35.6589L31.3351 35.6245L31.7486 35.4866C32.6788 35.1421 33.3334 34.6942 34.0569 34.0052C34.746 33.3161 35.1939 32.627 35.5384 31.6968L35.6762 31.2834C35.8829 30.6632 36.0897 29.8019 36.193 28.4927L36.2964 26.391L36.3308 24.255V21.1886V15.6417L36.2964 13.5056L36.2275 11.8863C36.193 11.404 36.1586 10.8872 36.0897 10.4048L36.0552 10.0947C36.0208 9.95693 36.0208 9.81912 35.9863 9.68131L35.9174 9.44014C35.8829 9.37123 35.8829 9.26787 35.8485 9.19897L35.7796 8.99225L35.7451 8.88889L35.5729 8.33764L35.5384 8.23428C35.1594 7.30405 34.746 6.64944 34.0569 5.92593C33.3679 5.20241 32.6788 4.78897 31.7486 4.44444L31.5419 4.37554L31.094 4.23773L30.9906 4.13437L30.715 4.06546C30.1637 3.92765 29.4747 3.78984 28.5444 3.72093L27.063 3.65202L25.8571 3.61757H24.3412Z" fill="url(#paint0_linear_1110_79039)"/>
<path d="M20.0001 9.71567C25.6504 9.71567 30.2327 14.2979 30.2327 19.9482C30.2327 25.5985 25.6504 30.1808 20.0001 30.1808C14.3498 30.1808 9.76758 25.5985 9.76758 19.9482C9.76758 14.2979 14.3498 9.71567 20.0001 9.71567ZM20.0001 13.2988C16.3137 13.2988 13.3507 16.2618 13.3507 19.9482C13.3507 23.6347 16.3137 26.5977 20.0001 26.5977C23.6866 26.5977 26.6496 23.6347 26.6496 19.9482C26.6496 16.2618 23.6522 13.2988 20.0001 13.2988ZM33.0234 9.30224C33.0578 10.6115 32.0243 11.7139 30.715 11.7484C29.4058 11.7829 28.3033 10.7493 28.2689 9.44005C28.2689 9.40559 28.2689 9.33669 28.2689 9.30224C28.3033 7.99302 29.4058 6.92497 30.715 6.99388C31.9898 6.99388 32.9889 8.02747 33.0234 9.30224Z" fill="url(#paint1_linear_1110_79039)"/>
<defs>
<linearGradient id="paint0_linear_1110_79039" x1="8.11197" y1="40.1147" x2="31.6282" y2="0.225725" gradientUnits="userSpaceOnUse">
<stop stop-color="#FDD074"/>
<stop offset="0.25" stop-color="#F77F34"/>
<stop offset="0.5" stop-color="#DD326E"/>
<stop offset="0.75" stop-color="#D82B7E"/>
<stop offset="1" stop-color="#A432B1"/>
</linearGradient>
<linearGradient id="paint1_linear_1110_79039" x1="14.0182" y1="30.0624" x2="27.6849" y2="6.81361" gradientUnits="userSpaceOnUse">
<stop stop-color="#FDD074"/>
<stop offset="0.25" stop-color="#F77F34"/>
<stop offset="0.5" stop-color="#DD326E"/>
<stop offset="0.75" stop-color="#D82B7E"/>
<stop offset="1" stop-color="#A432B1"/>
</linearGradient>
</defs>
</svg>
