<svg width="162" height="161" viewBox="0 0 162 161" fill="none" xmlns="http://www.w3.org/2000/svg">
<g id="Loading">
<path id="Ellipse 3" d="M155.335 80.2577C155.335 90.0195 153.412 99.6857 149.676 108.704C145.94 117.723 140.465 125.918 133.562 132.82C126.66 139.723 118.465 145.198 109.447 148.934C100.428 152.67 90.7617 154.592 80.9999 154.592C71.2381 154.592 61.572 152.67 52.5533 148.934C43.5346 145.198 35.34 139.723 28.4374 132.82C21.5348 125.918 16.0593 117.723 12.3237 108.704C8.58799 99.6857 6.66527 90.0195 6.66527 80.2577C6.66527 70.4959 8.58799 60.8298 12.3237 51.8111C16.0593 42.7924 21.5348 34.5978 28.4374 27.6952C35.34 20.7926 43.5346 15.3171 52.5533 11.5815C61.572 7.8458 71.2382 5.92308 80.9999 5.92308C90.7617 5.92308 100.428 7.8458 109.447 11.5815C118.465 15.3171 126.66 20.7926 133.562 27.6952C140.465 34.5978 145.941 42.7924 149.676 51.8111C153.412 60.8298 155.335 70.496 155.335 80.2577L155.335 80.2577Z" stroke="url(#paint0_angular_1253_71255)" stroke-width="11.8462" stroke-linecap="round"/>
<g id="Vector">
<mask id="path-2-inside-1_1253_71255" fill="white">
<path d="M70.2917 110.721C69.6004 110.719 68.917 110.575 68.2838 110.297C67.6507 110.019 67.0814 109.615 66.6113 109.108L42.1088 83.0424C41.1929 82.0662 40.7022 80.7663 40.7447 79.4284C40.7873 78.0905 41.3596 76.8243 42.3357 75.9084C43.3118 74.9925 44.6118 74.5018 45.9496 74.5443C47.2875 74.5869 48.5537 75.1592 49.4696 76.1353L70.2413 98.2682L112.642 51.8849C113.072 51.349 113.607 50.9068 114.215 50.5854C114.822 50.264 115.489 50.0702 116.174 50.0158C116.859 49.9614 117.548 50.0477 118.198 50.2693C118.849 50.4908 119.447 50.8431 119.957 51.3043C120.466 51.7655 120.876 52.326 121.161 52.9514C121.446 53.5767 121.6 54.2537 121.613 54.9408C121.627 55.6279 121.5 56.3105 121.241 56.9467C120.981 57.583 120.594 58.1594 120.103 58.6407L74.0225 109.057C73.5569 109.573 72.9896 109.988 72.3562 110.274C71.7229 110.56 71.0371 110.712 70.3421 110.721H70.2917Z"/>
</mask>
<path d="M70.2917 110.721L70.2563 121.721L70.274 121.721H70.2917V110.721ZM66.6113 109.108L74.6767 101.628L74.6515 101.601L74.626 101.574L66.6113 109.108ZM42.1088 83.0424L34.0873 90.5694L34.094 90.5765L42.1088 83.0424ZM49.4696 76.1353L41.4481 83.6623L41.4487 83.6629L49.4696 76.1353ZM70.2413 98.2682L62.2204 105.796L70.3474 114.455L78.3602 105.69L70.2413 98.2682ZM112.642 51.8849L120.761 59.3066L120.998 59.0469L121.218 58.7724L112.642 51.8849ZM120.103 58.6407L112.4 50.7883L112.186 50.9982L111.984 51.2195L120.103 58.6407ZM74.0225 109.057L65.9031 101.636L65.8794 101.662L65.8558 101.688L74.0225 109.057ZM70.3421 110.721V121.721H70.4105L70.4789 121.72L70.3421 110.721ZM70.3271 99.7212C71.1441 99.7238 71.9518 99.8944 72.7001 100.222L63.8676 120.372C65.8821 121.255 68.0567 121.714 70.2563 121.721L70.3271 99.7212ZM72.7001 100.222C73.4483 100.55 74.1211 101.029 74.6767 101.628L58.5459 116.588C60.0416 118.201 61.8531 119.488 63.8676 120.372L72.7001 100.222ZM74.626 101.574L50.1235 75.5082L34.094 90.5765L58.5965 116.642L74.626 101.574ZM50.1303 75.5153C51.2106 76.6667 51.7894 78.2 51.7392 79.778L29.7503 79.0787C29.615 83.3325 31.1751 87.4658 34.0873 90.5694L50.1303 75.5153ZM51.7392 79.778C51.689 81.3561 51.014 82.8495 49.8627 83.9299L34.8087 67.8869C31.7051 70.7991 29.8856 74.825 29.7503 79.0787L51.7392 79.778ZM49.8627 83.9299C48.7114 85.0102 47.178 85.589 45.6 85.5388L46.2993 63.5499C42.0455 63.4146 37.9122 64.9747 34.8087 67.8869L49.8627 83.9299ZM45.6 85.5388C44.0219 85.4886 42.5285 84.8136 41.4481 83.6623L57.4911 68.6083C54.5789 65.5047 50.5531 63.6852 46.2993 63.5499L45.6 85.5388ZM41.4487 83.6629L62.2204 105.796L78.2622 90.7406L57.4905 68.6077L41.4487 83.6629ZM78.3602 105.69L120.761 59.3066L104.523 44.4631L62.1224 90.8464L78.3602 105.69ZM121.218 58.7724C120.71 59.4057 120.077 59.9283 119.36 60.3081L109.07 40.8627C107.137 41.8854 105.434 43.2924 104.065 44.9973L121.218 58.7724ZM119.36 60.3081C118.642 60.688 117.854 60.9171 117.044 60.9813L115.304 39.0503C113.124 39.2233 111.003 39.8401 109.07 40.8627L119.36 60.3081ZM117.044 60.9813C116.235 61.0456 115.42 60.9436 114.652 60.6818L121.745 39.8567C119.675 39.1517 117.483 38.8773 115.304 39.0503L117.044 60.9813ZM114.652 60.6818C113.883 60.4199 113.176 60.0037 112.574 59.4586L127.34 43.15C125.719 41.6824 123.815 40.5617 121.745 39.8567L114.652 60.6818ZM112.574 59.4586C111.972 58.9135 111.487 58.2511 111.151 57.512L131.171 48.3908C130.264 46.4009 128.96 44.6175 127.34 43.15L112.574 59.4586ZM111.151 57.512C110.814 56.7729 110.632 55.9728 110.616 55.1609L132.611 54.7207C132.567 52.5347 132.077 50.3806 131.171 48.3908L111.151 57.512ZM110.616 55.1609C110.599 54.3489 110.749 53.5421 111.056 52.7902L131.425 61.1033C132.251 59.0789 132.655 56.9069 132.611 54.7207L110.616 55.1609ZM111.056 52.7902C111.363 52.0383 111.82 51.357 112.4 50.7883L127.807 66.4931C129.368 64.9619 130.599 63.1277 131.425 61.1033L111.056 52.7902ZM111.984 51.2195L65.9031 101.636L82.142 116.479L128.223 66.0619L111.984 51.2195ZM65.8558 101.688C66.4061 101.078 67.0766 100.589 67.8251 100.25L76.8874 120.297C78.9026 119.386 80.7077 118.068 82.1893 116.427L65.8558 101.688ZM67.8251 100.25C68.5736 99.9121 69.384 99.7322 70.2054 99.722L70.4789 121.72C72.6903 121.693 74.8721 121.208 76.8874 120.297L67.8251 100.25ZM70.3421 99.7211H70.2917V121.721H70.3421V99.7211Z" fill="#7D26CD" mask="url(#path-2-inside-1_1253_71255)"/>
</g>
</g>
<defs>
<radialGradient id="paint0_angular_1253_71255" cx="0" cy="0" r="1" gradientUnits="userSpaceOnUse" gradientTransform="translate(82.3326 85.2923) scale(72.1135)">
<stop offset="0.251577" stop-color="#7D26CD"/>
<stop offset="1" stop-color="#7D26CD"/>
</radialGradient>
</defs>
</svg>
