<svg width="40" height="40" viewBox="0 0 40 40" fill="none" xmlns="http://www.w3.org/2000/svg">
<path d="M34.3668 14.0834C32.6168 6.38335 25.9002 2.91669 20.0002 2.91669C20.0002 2.91669 20.0002 2.91669 19.9835 2.91669C14.1002 2.91669 7.36683 6.36669 5.61683 14.0667C3.66683 22.6667 8.93349 29.95 13.7002 34.5333C15.4668 36.2333 17.7335 37.0834 20.0002 37.0834C22.2668 37.0834 24.5335 36.2333 26.2835 34.5333C31.0502 29.95 36.3168 22.6834 34.3668 14.0834ZM20.0002 22.4334C17.1002 22.4334 14.7502 20.0834 14.7502 17.1834C14.7502 14.2834 17.1002 11.9334 20.0002 11.9334C22.9002 11.9334 25.2502 14.2834 25.2502 17.1834C25.2502 20.0834 22.9002 22.4334 20.0002 22.4334Z" fill="#181818"/>
</svg>
