<svg width="14" height="13" viewBox="0 0 14 13" fill="none" xmlns="http://www.w3.org/2000/svg">
<g id="vuesax/bold/heart">
<g id="vuesax/bold/heart_2">
<g id="heart">
<path id="Vector" d="M6.78171 3.4535L7.0321 3.78818L7.28249 3.4535C7.75263 2.82509 8.50593 2.41665 9.34613 2.41665C10.772 2.41665 11.9312 3.57813 11.9312 5.01733C11.9312 5.60352 11.8377 6.14438 11.6753 6.64617L11.6747 6.64821C11.2854 7.8803 10.4868 8.87513 9.62245 9.61801C8.75668 10.3621 7.84278 10.8378 7.2545 11.038L7.2545 11.038L7.25115 11.0391C7.20643 11.0549 7.12701 11.0682 7.0321 11.0682C6.93719 11.0682 6.85777 11.0549 6.81304 11.0391L6.81305 11.0391L6.80969 11.038C6.22141 10.8378 5.30752 10.3621 4.44175 9.61801C3.57736 8.87513 2.77884 7.8803 2.3895 6.64821L2.38951 6.64821L2.38885 6.64617C2.2265 6.14438 2.13302 5.60352 2.13302 5.01733C2.13302 3.57813 3.29221 2.41665 4.71807 2.41665C5.55827 2.41665 6.31156 2.82509 6.78171 3.4535Z" fill="#D92D20" stroke="#D92D20" stroke-width="0.625414"/>
</g>
</g>
</g>
</svg>
