<svg width="32" height="32" viewBox="0 0 32 32" fill="none" xmlns="http://www.w3.org/2000/svg">
<g id="vuesax/bold/notification">
<g id="vuesax/bold/notification_2">
<g id="notification">
<path id="Vector" d="M25.7868 19.32L24.4534 17.1067C24.1734 16.6134 23.9201 15.68 23.9201 15.1334V11.76C23.9201 8.62669 22.0801 5.92002 19.4268 4.65335C18.7334 3.42669 17.4534 2.66669 15.9868 2.66669C14.5334 2.66669 13.2268 3.45335 12.5334 4.69335C9.93342 5.98669 8.13342 8.66669 8.13342 11.76V15.1334C8.13342 15.68 7.88009 16.6134 7.60009 17.0934L6.25342 19.32C5.72009 20.2134 5.60009 21.2 5.93342 22.1067C6.25342 23 7.01342 23.6934 8.00009 24.0267C10.5868 24.9067 13.3068 25.3334 16.0268 25.3334C18.7468 25.3334 21.4668 24.9067 24.0534 24.04C24.9868 23.7334 25.7068 23.0267 26.0534 22.1067C26.4001 21.1867 26.3068 20.1734 25.7868 19.32Z" fill="#525252"/>
<path id="Vector_2" d="M19.7736 26.68C19.2136 28.2267 17.7336 29.3334 16.0002 29.3334C14.9469 29.3334 13.9069 28.9067 13.1736 28.1467C12.7469 27.7467 12.4269 27.2134 12.2402 26.6667C12.4136 26.6934 12.5869 26.7067 12.7736 26.7334C13.0802 26.7734 13.4002 26.8134 13.7202 26.84C14.4802 26.9067 15.2536 26.9467 16.0269 26.9467C16.7869 26.9467 17.5469 26.9067 18.2936 26.84C18.5736 26.8134 18.8536 26.8 19.1202 26.76C19.3336 26.7334 19.5469 26.7067 19.7736 26.68Z" fill="#525252"/>
</g>
</g>
</g>
</svg>
