<svg width="40" height="40" viewBox="0 0 40 40" fill="none" xmlns="http://www.w3.org/2000/svg">
<g id="vuesax/bold/sms">
<g id="vuesax/bold/sms_2">
<g id="sms">
<path id="Vector" d="M28.3335 5.83331H11.6668C6.66683 5.83331 3.3335 8.33331 3.3335 14.1666V25.8333C3.3335 31.6666 6.66683 34.1666 11.6668 34.1666H28.3335C33.3335 34.1666 36.6668 31.6666 36.6668 25.8333V14.1666C36.6668 8.33331 33.3335 5.83331 28.3335 5.83331ZM29.1168 15.9833L23.9002 20.15C22.8002 21.0333 21.4002 21.4666 20.0002 21.4666C18.6002 21.4666 17.1835 21.0333 16.1002 20.15L10.8835 15.9833C10.3502 15.55 10.2668 14.75 10.6835 14.2166C11.1168 13.6833 11.9002 13.5833 12.4335 14.0166L17.6502 18.1833C18.9168 19.2 21.0668 19.2 22.3335 18.1833L27.5502 14.0166C28.0835 13.5833 28.8835 13.6666 29.3002 14.2166C29.7335 14.75 29.6502 15.55 29.1168 15.9833Z" fill="#181818"/>
</g>
</g>
</g>
</svg>
