<svg width="10" height="11" viewBox="0 0 10 11" fill="none" xmlns="http://www.w3.org/2000/svg">
<g id="vuesax/bold/star">
<g id="vuesax/bold/star_2">
<g id="star">
<path id="Vector" d="M5.72104 1.66243L6.45437 3.12909C6.55437 3.33326 6.82104 3.52909 7.04604 3.56659L8.37521 3.78743C9.22521 3.92909 9.42521 4.54576 8.81271 5.15409L7.77937 6.18743C7.60437 6.36243 7.50854 6.69993 7.56271 6.94159L7.85854 8.22076C8.09187 9.23326 7.55437 9.62493 6.65854 9.09576L5.41271 8.35826C5.18771 8.22493 4.81687 8.22493 4.58771 8.35826L3.34187 9.09576C2.45021 9.62493 1.90854 9.22909 2.14187 8.22076L2.43771 6.94159C2.49187 6.69993 2.39604 6.36243 2.22104 6.18743L1.18771 5.15409C0.579373 4.54576 0.775206 3.92909 1.62521 3.78743L2.95437 3.56659C3.17521 3.52909 3.44187 3.33326 3.54187 3.12909L4.27521 1.66243C4.67521 0.866593 5.32521 0.866593 5.72104 1.66243Z" fill="#F9FD22"/>
</g>
</g>
</g>
</svg>
