<svg width="16" height="17" viewBox="0 0 16 17" fill="none" xmlns="http://www.w3.org/2000/svg">
<g id="vuesax/bold/star">
<g id="vuesax/bold/star_2">
<g id="star">
<path id="Vector" d="M9.15327 3.11357L10.3266 5.46024C10.4866 5.7869 10.9133 6.10024 11.2733 6.16024L13.3999 6.51357C14.7599 6.74024 15.0799 7.7269 14.0999 8.70024L12.4466 10.3536C12.1666 10.6336 12.0133 11.1736 12.0999 11.5602L12.5733 13.6069C12.9466 15.2269 12.0866 15.8536 10.6533 15.0069L8.65994 13.8269C8.29994 13.6136 7.70661 13.6136 7.33994 13.8269L5.34661 15.0069C3.91994 15.8536 3.05327 15.2202 3.42661 13.6069L3.89994 11.5602C3.98661 11.1736 3.83327 10.6336 3.55327 10.3536L1.89994 8.70024C0.926606 7.7269 1.23994 6.74024 2.59994 6.51357L4.72661 6.16024C5.07994 6.10024 5.50661 5.7869 5.66661 5.46024L6.83994 3.11357C7.47994 1.84024 8.51994 1.84024 9.15327 3.11357Z" fill="#F9FD22"/>
</g>
</g>
</g>
</svg>
