<svg width="41" height="34" viewBox="0 0 41 34" fill="none" xmlns="http://www.w3.org/2000/svg">
<g id="Logo_1_">
<path id="white_background" d="M36.4049 8.8244C36.4293 9.17772 36.4293 9.53103 36.4293 9.8876C36.4293 20.7524 28.1742 33.2829 13.0793 33.2829V33.2764C8.62025 33.2829 4.25381 32.0031 0.5 29.5902C1.14839 29.6683 1.80002 29.7074 2.45328 29.709C6.14859 29.7123 9.73827 28.47 12.6454 26.1824C9.13376 26.1156 6.05434 23.8215 4.97857 20.4724C6.20871 20.7101 7.47623 20.6612 8.68363 20.3307C4.85507 19.5557 2.10065 16.1854 2.10065 12.2713C2.10065 12.2354 2.10065 12.2012 2.10065 12.1671C3.24142 12.8037 4.51869 13.157 5.82521 13.1961C2.21928 10.7815 1.10776 5.9751 3.28529 2.21726C7.45186 7.35416 13.5993 10.477 20.1986 10.8075C19.5372 7.9517 20.4407 4.95911 22.5727 2.95157C25.878 -0.161503 31.0765 -0.00194165 34.1835 3.30814C36.0214 2.94506 37.783 2.26936 39.395 1.312C38.7823 3.21534 37.5002 4.83212 35.7874 5.85949C37.4141 5.66737 39.0034 5.23102 40.5 4.56509C39.3982 6.21932 38.0105 7.66026 36.4049 8.8244Z" fill="#1D9BF0"/>
</g>
</svg>
